<svg width="48" height="47" viewBox="0 0 48 47" fill="none" xmlns="http://www.w3.org/2000/svg">
<g clip-path="url(#clip0_223_19)">
<path fill-rule="evenodd" clip-rule="evenodd" d="M24 30.8437C19.9448 30.8437 16.6562 27.5552 16.6562 23.5C16.6562 19.4448 19.9448 16.1562 24 16.1562C28.0552 16.1562 31.3438 19.4448 31.3438 23.5C31.3438 27.5552 28.0552 30.8437 24 30.8437ZM39.3617 21.4746L36.3302 20.3958C35.9498 20.2607 35.5304 19.8377 35.3975 19.4558L34.9187 18.2955C34.7439 17.9312 34.7424 17.3349 34.9157 16.9699L36.2927 14.0736C36.466 13.7086 36.3874 13.1644 36.1179 12.8633L34.6367 11.3821C34.3356 11.1126 33.7914 11.034 33.4264 11.2073L30.5301 12.5842C30.1651 12.7576 29.5688 12.7561 29.2045 12.5813L28.0442 12.1025C27.6623 11.9703 27.2393 11.5502 27.1042 11.1698L26.0254 8.13834C25.8903 7.75793 25.4497 7.41792 25.048 7.38267C25.048 7.38267 24.6015 7.34375 24 7.34375C23.3985 7.34375 22.952 7.38267 22.952 7.38267C22.5496 7.41792 22.1097 7.75793 21.9746 8.13834L20.8958 11.1698C20.7607 11.5502 20.3377 11.9703 19.9558 12.1032L18.7977 12.5813C18.4334 12.7561 17.8371 12.7576 17.4721 12.5842L14.5736 11.2073C14.2086 11.034 13.6644 11.1126 13.3633 11.3821L11.8821 12.8633C11.6126 13.1644 11.534 13.7086 11.7073 14.0736L13.0842 16.9699C13.2576 17.3349 13.2568 17.9312 13.0813 18.2955L12.6025 19.4558C12.4703 19.8377 12.0503 20.2607 11.6698 20.3958L8.63834 21.4746C8.25794 21.6097 7.91792 22.0496 7.88267 22.452C7.88267 22.452 7.84375 22.8985 7.84375 23.5C7.84375 24.1014 7.88267 24.5472 7.88267 24.5472C7.91792 24.9497 8.25794 25.3895 8.63834 25.5254L11.6713 26.6042C12.0517 26.7393 12.4718 27.1623 12.6047 27.5442L13.0835 28.7045C13.2583 29.0688 13.2598 29.6651 13.0865 30.0301L11.7095 32.9264C11.5362 33.2914 11.6148 33.8356 11.8843 34.1367L13.3655 35.6179C13.6666 35.8874 14.2108 35.966 14.5758 35.7927L17.4721 34.4157C17.8371 34.2424 18.4334 34.2439 18.7977 34.4187L19.958 34.8975C20.3391 35.0297 20.7621 35.4497 20.898 35.8302L21.9768 38.8631C22.1119 39.2435 22.5518 39.5835 22.9543 39.6181C22.9543 39.6181 23.3985 39.6562 24 39.6562C24.6015 39.6562 25.048 39.6173 25.048 39.6173C25.4497 39.5821 25.8903 39.2421 26.0254 38.8617L27.1042 35.8287C27.2393 35.4483 27.6623 35.0282 28.0442 34.8953L29.2045 34.4165C29.5688 34.2417 30.1651 34.2402 30.5301 34.4135L33.4264 35.7905C33.7914 35.9638 34.3356 35.8852 34.6367 35.6157L36.1179 34.1345C36.3874 33.8334 36.466 33.2892 36.2927 32.9242L34.9157 30.0279C34.7424 29.6629 34.7439 29.0666 34.9187 28.703L35.3975 27.542C35.5297 27.1609 35.9498 26.7379 36.3302 26.602L39.3631 25.5232C39.7435 25.3881 40.0835 24.9482 40.1181 24.5457C40.1181 24.5457 40.1562 24.1014 40.1562 23.5C40.1562 22.8985 40.1173 22.452 40.1173 22.452C40.0821 22.0496 39.7421 21.6097 39.3617 21.4746Z" fill="#2C2C2C"/>
<path fill-rule="evenodd" clip-rule="evenodd" d="M24 20.1953C23.1235 20.1953 22.283 20.5435 21.6632 21.1632C21.0435 21.783 20.6953 22.6236 20.6953 23.5C20.6953 24.3765 21.0435 25.217 21.6632 25.8368C22.283 26.4565 23.1235 26.8047 24 26.8047C24.8765 26.8047 25.717 26.4565 26.3368 25.8368C26.9565 25.217 27.3047 24.3765 27.3047 23.5C27.3047 22.6236 26.9565 21.783 26.3368 21.1632C25.717 20.5435 24.8765 20.1953 24 20.1953Z" fill="#2C2C2C"/>
</g>
<defs>
<clipPath id="clip0_223_19">
<rect width="47" height="47" fill="white" transform="translate(0.5)"/>
</clipPath>
</defs>
</svg>
