<svg width="800" height="800" viewBox="0 0 800 800" fill="none" xmlns="http://www.w3.org/2000/svg">
<rect width="800" height="800" rx="400" fill="#1B1C20"/>
<path d="M239.05 587.1C326.31 633.1 467.79 633.1 555.05 587.1C642.31 541.1 642.31 466.48 555.05 420.47C467.79 374.46 326.31 374.47 239.05 420.47C151.79 466.47 151.78 541.09 239.05 587.1Z" fill="#F5F5F5"/>
<path d="M313.51 507.3L316.13 504.18L236.76 458.35L231.38 461.45L259.57 477.73L232.5 493.36L204.07 476.94L198.7 480.05L279.94 526.95L280.79 525.93L281.22 526.17L312.38 508.22L312.63 508.36L313.08 507.81L313.75 507.43L313.51 507.3Z" fill="#E0E0E0"/>
<path d="M507.41 553.03C531.832 553.03 551.63 543.597 551.63 531.96C551.63 520.323 531.832 510.89 507.41 510.89C482.988 510.89 463.19 520.323 463.19 531.96C463.19 543.597 482.988 553.03 507.41 553.03Z" fill="#E0E0E0"/>
<path d="M373.83 596.46C398.252 596.46 418.05 587.027 418.05 575.39C418.05 563.753 398.252 554.32 373.83 554.32C349.408 554.32 329.61 563.753 329.61 575.39C329.61 587.027 349.408 596.46 373.83 596.46Z" fill="#E0E0E0"/>
<path d="M542.67 558.28C551.25 563.28 565.16 563.28 573.74 558.28C582.32 553.28 582.32 545.28 573.74 540.34C565.16 535.4 551.25 535.39 542.67 540.34C534.09 545.29 534.09 553.33 542.67 558.28Z" fill="#E0E0E0"/>
<path d="M239.84 567.25C251.974 567.25 261.81 561.573 261.81 554.57C261.81 547.567 251.974 541.89 239.84 541.89C227.706 541.89 217.87 547.567 217.87 554.57C217.87 561.573 227.706 567.25 239.84 567.25Z" fill="#E0E0E0"/>
<path d="M281 339.48L236.48 460.75C236.333 461.117 236.055 461.417 235.7 461.59C235.071 461.91 234.376 462.078 233.67 462.078C232.964 462.078 232.269 461.91 231.64 461.59C231.437 461.494 231.257 461.355 231.114 461.183C230.97 461.01 230.866 460.807 230.81 460.59C230.79 460.481 230.79 460.369 230.81 460.26C230.821 459.977 230.875 459.697 230.97 459.43L275.64 337.5C275.765 337.137 275.961 336.803 276.217 336.517C276.473 336.231 276.784 335.999 277.131 335.835C277.477 335.671 277.854 335.577 278.237 335.561C278.621 335.544 279.003 335.604 279.363 335.737C279.723 335.87 280.053 336.074 280.333 336.337C280.613 336.599 280.838 336.915 280.994 337.266C281.15 337.616 281.234 337.994 281.242 338.378C281.25 338.762 281.182 339.143 281.04 339.5L281 339.48Z" fill="#37474F"/>
<path d="M221.48 422.92L266.16 448.72" stroke="#37474F" stroke-width="6" stroke-miterlimit="10"/>
<path d="M253.97 404.16L298.66 429.96" stroke="#37474F" stroke-width="6" stroke-miterlimit="10"/>
<path d="M244.68 331.15L268.51 317.39C269.388 316.821 270.395 316.48 271.438 316.398C272.481 316.317 273.528 316.496 274.485 316.921C275.441 317.346 276.276 318.003 276.914 318.832C277.553 319.661 277.974 320.637 278.14 321.67L317.7 506.75C317.732 506.874 317.748 507.002 317.75 507.13C317.765 507.263 317.765 507.397 317.75 507.53C317.693 507.747 317.589 507.949 317.446 508.122C317.302 508.295 317.123 508.434 316.92 508.53C316.291 508.85 315.596 509.018 314.89 509.018C314.185 509.018 313.489 508.85 312.86 508.53C312.505 508.344 312.225 508.04 312.07 507.67C312.067 507.613 312.067 507.557 312.07 507.5L272.52 322.87C272.493 322.597 272.36 322.346 272.15 322.17C272.017 322.15 271.88 322.158 271.75 322.192C271.619 322.227 271.497 322.287 271.39 322.37L247.55 336.13" fill="#455A64"/>
<path d="M283.57 508L269.06 499.62C268.807 499.456 268.596 499.235 268.445 498.974C268.294 498.714 268.206 498.421 268.19 498.12V497.78C268.205 497.479 268.291 497.185 268.443 496.924C268.594 496.663 268.806 496.442 269.06 496.28L303.88 476.17C304.149 476.032 304.447 475.96 304.75 475.96C305.052 475.96 305.351 476.032 305.62 476.17L320.13 484.55C320.382 484.714 320.593 484.936 320.744 485.196C320.895 485.457 320.983 485.749 321 486.05V486.4C320.983 486.701 320.895 486.993 320.744 487.254C320.593 487.514 320.382 487.736 320.13 487.9L285.31 508C285.041 508.138 284.742 508.21 284.44 508.21C284.137 508.21 283.839 508.138 283.57 508Z" fill="#2E2E2E"/>
<path opacity="0.1" d="M268.45 496.94C268.29 497.199 268.2 497.496 268.19 497.8V498.14C268.206 498.441 268.294 498.734 268.445 498.994C268.596 499.255 268.807 499.476 269.06 499.64L283.57 508C283.837 508.143 284.137 508.215 284.44 508.21V506.16L268.45 496.94Z" fill="black"/>
<path opacity="0.15" d="M284.44 506.18V508.23C284.743 508.235 285.043 508.163 285.31 508.02L302.72 498.02L320.13 487.97C320.382 487.806 320.593 487.584 320.744 487.324C320.895 487.063 320.983 486.771 321 486.47V486.12C320.989 485.819 320.9 485.526 320.74 485.27L284.44 506.18Z" fill="black"/>
<path d="M277.28 478.59L262.76 470.21C262.51 470.043 262.303 469.821 262.154 469.561C262.004 469.301 261.918 469.009 261.9 468.71V468.36C261.918 468.06 262.004 467.769 262.154 467.509C262.303 467.249 262.51 467.026 262.76 466.86L297.59 446.76C297.857 446.622 298.154 446.55 298.455 446.55C298.756 446.55 299.052 446.622 299.32 446.76L313.84 455.14C314.091 455.305 314.3 455.526 314.449 455.787C314.599 456.048 314.685 456.34 314.7 456.64V457C314.687 457.301 314.602 457.594 314.453 457.855C314.303 458.116 314.093 458.337 313.84 458.5L279 478.59C278.734 478.726 278.439 478.797 278.14 478.797C277.841 478.797 277.546 478.726 277.28 478.59Z" fill="#2E2E2E"/>
<path opacity="0.1" d="M262.15 467.51C261.994 467.767 261.908 468.06 261.9 468.36V468.71C261.918 469.009 262.004 469.301 262.154 469.561C262.303 469.821 262.51 470.043 262.76 470.21L277.28 478.59C277.547 478.734 277.847 478.807 278.15 478.8V476.75L262.15 467.51Z" fill="black"/>
<path opacity="0.15" d="M278.15 476.75V478.8C278.45 478.805 278.746 478.733 279.01 478.59L296.43 468.59L313.84 458.53C314.093 458.367 314.303 458.146 314.453 457.885C314.602 457.624 314.687 457.331 314.7 457.03V456.69C314.693 456.39 314.607 456.096 314.45 455.84L278.15 476.75Z" fill="black"/>
<path d="M271 449.16L256.48 440.78C256.227 440.616 256.017 440.394 255.866 440.134C255.715 439.873 255.627 439.581 255.61 439.28V438.93C255.627 438.629 255.715 438.337 255.866 438.076C256.017 437.816 256.227 437.594 256.48 437.43L291.31 417.33C291.577 417.192 291.874 417.12 292.175 417.12C292.476 417.12 292.772 417.192 293.04 417.33L307.55 425.71C307.803 425.874 308.014 426.095 308.165 426.356C308.316 426.616 308.403 426.909 308.42 427.21V427.55C308.405 427.851 308.318 428.145 308.167 428.406C308.016 428.667 307.804 428.888 307.55 429.05L272.73 449.16C272.462 449.298 272.166 449.37 271.865 449.37C271.564 449.37 271.267 449.298 271 449.16Z" fill="#2E2E2E"/>
<path opacity="0.1" d="M255.86 438.08C255.702 438.336 255.612 438.629 255.6 438.93V439.28C255.617 439.581 255.705 439.873 255.856 440.134C256.007 440.394 256.218 440.616 256.47 440.78L263.73 444.97L270.99 449.16C271.253 449.304 271.55 449.377 271.85 449.37V447.31L255.86 438.08Z" fill="black"/>
<path opacity="0.15" d="M271.85 447.31V449.37C272.153 449.377 272.453 449.304 272.72 449.16L290.13 439.11L307.54 429.05C307.794 428.888 308.006 428.667 308.157 428.406C308.309 428.145 308.395 427.851 308.41 427.55V427.21C308.397 426.907 308.311 426.612 308.16 426.35L271.85 447.31Z" fill="black"/>
<path d="M264.69 419.73L250.18 411.35C249.928 411.186 249.717 410.964 249.566 410.704C249.415 410.443 249.327 410.151 249.31 409.85V409.5C249.327 409.199 249.415 408.907 249.566 408.646C249.717 408.386 249.928 408.164 250.18 408L285 387.9C285.268 387.762 285.564 387.69 285.865 387.69C286.166 387.69 286.463 387.762 286.73 387.9L301.25 396.28C301.504 396.442 301.716 396.663 301.867 396.924C302.019 397.185 302.105 397.479 302.12 397.78V398.12C302.104 398.421 302.016 398.714 301.865 398.974C301.714 399.235 301.503 399.456 301.25 399.62L266.42 419.73C266.152 419.865 265.856 419.936 265.555 419.936C265.255 419.936 264.958 419.865 264.69 419.73Z" fill="#2E2E2E"/>
<path opacity="0.15" d="M265.56 417.88V419.94C265.86 419.945 266.156 419.873 266.42 419.73L283.84 409.68L301.25 399.62C301.503 399.456 301.714 399.235 301.865 398.974C302.016 398.714 302.104 398.421 302.12 398.12V397.78C302.11 397.476 302.02 397.179 301.86 396.92L265.56 417.88Z" fill="black"/>
<path opacity="0.1" d="M249.56 408.65C249.409 408.909 249.323 409.201 249.31 409.5V409.85C249.327 410.151 249.415 410.443 249.566 410.704C249.717 410.964 249.928 411.186 250.18 411.35L264.69 419.73C264.957 419.874 265.257 419.947 265.56 419.94V417.88L249.56 408.65Z" fill="black"/>
<path d="M258.4 390.3L234.27 376.37C234.019 376.205 233.81 375.984 233.661 375.723C233.511 375.462 233.425 375.17 233.41 374.87V374.53C233.426 374.23 233.512 373.938 233.662 373.678C233.811 373.417 234.019 373.195 234.27 373.03L269.1 352.92C269.368 352.782 269.664 352.71 269.965 352.71C270.266 352.71 270.563 352.782 270.83 352.92L295 366.85C295.251 367.015 295.46 367.236 295.61 367.497C295.759 367.758 295.845 368.05 295.86 368.35V368.69C295.843 368.99 295.756 369.281 295.607 369.541C295.457 369.801 295.25 370.024 295 370.19L260.13 390.3C259.86 390.43 259.565 390.497 259.265 390.497C258.966 390.497 258.67 390.43 258.4 390.3Z" fill="#2E2E2E"/>
<path opacity="0.15" d="M259.26 388.45V390.5C259.562 390.51 259.862 390.441 260.13 390.3L277.54 380.24L295 370.19C295.249 370.023 295.457 369.801 295.606 369.541C295.755 369.281 295.842 368.989 295.86 368.69V368.34C295.852 368.04 295.765 367.747 295.61 367.49L259.26 388.45Z" fill="black"/>
<path opacity="0.1" d="M233.66 373.67C233.509 373.932 233.423 374.227 233.41 374.53V374.87C233.425 375.17 233.511 375.462 233.661 375.723C233.81 375.984 234.019 376.205 234.27 376.37L258.4 390.3C258.665 390.44 258.961 390.509 259.26 390.5V388.45L233.66 373.67Z" fill="black"/>
<path d="M248.55 358.24L204 479.37L203.9 479.64C203.729 479.935 203.48 480.177 203.18 480.34C202.548 480.656 201.851 480.82 201.145 480.82C200.439 480.82 199.742 480.656 199.11 480.34C198.909 480.242 198.73 480.102 198.587 479.929C198.444 479.757 198.339 479.556 198.28 479.34C198.27 479.23 198.27 479.12 198.28 479.01C198.292 478.723 198.349 478.439 198.45 478.17L243.15 356.26C243.275 355.897 243.471 355.563 243.727 355.277C243.983 354.991 244.294 354.759 244.641 354.595C244.987 354.431 245.364 354.337 245.747 354.321C246.13 354.304 246.513 354.364 246.873 354.497C247.233 354.63 247.563 354.834 247.843 355.097C248.123 355.359 248.347 355.675 248.504 356.026C248.66 356.376 248.744 356.754 248.752 357.138C248.76 357.522 248.692 357.903 248.55 358.26V358.24Z" fill="#37474F"/>
<path d="M247.55 336.13C246.863 336.598 246.319 337.248 245.982 338.008C245.644 338.767 245.526 339.606 245.64 340.43L285.21 525.5C285.25 525.647 285.27 525.798 285.27 525.95C285.28 526.056 285.28 526.164 285.27 526.27C285.212 526.487 285.107 526.688 284.964 526.861C284.821 527.033 284.642 527.173 284.44 527.27C283.811 527.59 283.116 527.758 282.41 527.758C281.704 527.758 281.009 527.59 280.38 527.27C280.032 527.089 279.754 526.797 279.59 526.44L279.54 526.2L240 341.64C239.643 339.626 239.896 337.552 240.726 335.682C241.556 333.813 242.926 332.235 244.66 331.15" fill="#455A64"/>
<path d="M258.59 523.06L221.89 522.56L221.57 552.56C221.57 555.28 223.31 558.01 226.87 560.12C233.99 564.33 245.61 564.46 252.82 560.4C256.46 558.35 258.28 555.63 258.28 552.89L258.59 523.06Z" fill="#37474F"/>
<path d="M227.35 515.13C220.14 519.19 220.07 525.9 227.19 530.13C234.31 534.36 245.93 534.47 253.19 530.41C260.45 526.35 260.47 519.64 253.35 515.41C246.23 511.18 234.56 511.07 227.35 515.13Z" fill="#455A64"/>
<path d="M257 522.94C256.993 523.428 256.905 523.911 256.74 524.37C256.18 526.09 254.68 527.69 252.34 529.01C248.565 530.945 244.361 531.891 240.12 531.76C235.884 531.808 231.706 530.776 227.98 528.76C226.049 527.783 224.539 526.137 223.73 524.13C223.555 523.636 223.467 523.115 223.47 522.59C223.47 520.35 225.15 518.19 228.12 516.54C231.88 514.581 236.083 513.63 240.32 513.78C244.564 513.717 248.753 514.751 252.48 516.78C255.44 518.52 257 520.7 257 522.94Z" fill="#263238"/>
<path d="M256.76 524.37C256.2 526.09 254.7 527.69 252.36 529.01C248.585 530.945 244.38 531.891 240.14 531.76C235.904 531.808 231.726 530.776 228 528.76C226.069 527.783 224.559 526.137 223.75 524.13C224.582 522.094 226.149 520.445 228.14 519.51C231.902 517.557 236.103 516.603 240.34 516.74C244.583 516.687 248.769 517.72 252.5 519.74C254.431 520.721 255.943 522.364 256.76 524.37Z" fill="#2E2E2E"/>
<path d="M248.07 534.29C248.87 533.83 249.52 534.22 249.51 535.14C249.473 535.645 249.316 536.133 249.054 536.566C248.791 536.999 248.43 537.363 248 537.63C247.19 538.09 246.55 537.7 246.56 536.78C246.596 536.275 246.752 535.786 247.014 535.353C247.277 534.92 247.639 534.555 248.07 534.29Z" fill="#263238"/>
<path d="M221.83 527.83C219.83 531.83 215.83 541.27 221.01 545.12C221.23 545.28 221.43 545.42 221.65 545.56V547.48C221.13 547.16 220.59 546.8 220.07 546.42C212.28 540.65 221.07 525.83 221.45 525.21C221.547 525.044 221.705 524.922 221.89 524.87L221.83 527.83Z" fill="#E0E0E0"/>
<path d="M248.75 536.34C248.53 536.8 242.86 547.64 233.53 549.82C232.479 550.074 231.402 550.202 230.32 550.2C227.223 550.142 224.208 549.198 221.63 547.48V545.56C225.48 548.24 229.36 549.16 233.15 548.28C241.76 546.28 247.27 535.7 247.31 535.6C247.359 535.507 247.425 535.424 247.506 535.356C247.586 535.289 247.68 535.238 247.78 535.206C247.88 535.175 247.986 535.163 248.09 535.172C248.195 535.182 248.297 535.211 248.39 535.26C248.487 535.305 248.574 535.369 248.645 535.448C248.717 535.528 248.771 535.621 248.804 535.722C248.838 535.823 248.851 535.93 248.841 536.037C248.832 536.143 248.801 536.246 248.75 536.34Z" fill="#E0E0E0"/>
<path d="M324.93 431.05L321.13 428.86C320.501 428.448 319.978 427.894 319.603 427.242C319.228 426.591 319.011 425.861 318.97 425.11V251.88C319.009 251.129 319.226 250.398 319.601 249.747C319.976 249.095 320.5 248.541 321.13 248.13L446.79 175.58C447.461 175.24 448.202 175.063 448.955 175.063C449.707 175.063 450.449 175.24 451.12 175.58L454.91 177.77C455.541 178.18 456.067 178.733 456.444 179.385C456.821 180.037 457.039 180.768 457.08 181.52V354.76C457.039 355.512 456.821 356.243 456.444 356.895C456.067 357.547 455.541 358.1 454.91 358.51L329.26 431.05C328.589 431.39 327.847 431.567 327.095 431.567C326.342 431.567 325.601 431.39 324.93 431.05Z" fill="#2E2E2E"/>
<path opacity="0.4" d="M457.05 181.16C456.9 180.04 455.99 179.63 454.91 180.26L329.25 252.81C328.613 253.214 328.087 253.771 327.72 254.43L319.6 249.74C319.964 249.078 320.49 248.521 321.13 248.12L446.78 175.57C447.451 175.23 448.193 175.053 448.945 175.053C449.697 175.053 450.439 175.23 451.11 175.57L454.91 177.76C455.489 178.141 455.98 178.642 456.349 179.228C456.718 179.814 456.957 180.473 457.05 181.16Z" fill="white"/>
<path opacity="0.1" d="M328.75 431.27C328.131 431.499 327.471 431.597 326.812 431.559C326.153 431.521 325.509 431.348 324.92 431.05L321.13 428.86C320.498 428.45 319.973 427.897 319.596 427.245C319.219 426.593 319.001 425.862 318.96 425.11V251.87C318.99 251.117 319.21 250.384 319.6 249.74L327.72 254.43C327.332 255.075 327.116 255.808 327.09 256.56V429.8C327.09 431 327.8 431.56 328.75 431.27Z" fill="black"/>
<path d="M466.89 317.52C466.729 317.447 466.552 317.418 466.377 317.435C466.201 317.453 466.033 317.517 465.89 317.62L460.79 321C460.463 321.202 460.07 321.267 459.696 321.181C459.321 321.095 458.996 320.864 458.79 320.54C458.484 320.115 458.15 319.711 457.79 319.33C457.491 319.016 457.28 318.629 457.176 318.208C457.073 317.787 457.081 317.347 457.2 316.93L465.2 311.83L459.2 308.37C459.077 308.3 458.946 308.247 458.81 308.21L454.99 307.36C454.571 307.286 454.139 307.342 453.753 307.52C453.367 307.699 453.044 307.992 452.83 308.36L449.25 315.19C448.758 315.987 447.983 316.569 447.08 316.82L446.86 316.89C447.014 316.371 447.121 315.838 447.18 315.3L441.18 311.82C440.99 311.719 440.773 311.682 440.56 311.715C440.348 311.747 440.151 311.847 440 312L434.29 316.49C433.946 316.792 433.67 317.164 433.482 317.582C433.294 317.999 433.198 318.452 433.2 318.91L433.54 324.35C433.539 325.3 433.226 326.224 432.65 326.98C431.72 328.1 430.83 329.27 430 330.49C429.727 330.848 429.376 331.14 428.975 331.345C428.573 331.549 428.131 331.66 427.68 331.67L424 331.49C423.564 331.491 423.136 331.612 422.764 331.839C422.392 332.067 422.09 332.392 421.89 332.78L418.44 340.52C418.292 340.848 418.27 341.22 418.379 341.563C418.488 341.906 418.72 342.197 419.03 342.38L423.1 344.73C423.235 345.063 423.266 345.429 423.19 345.78C422.915 347.001 422.704 348.236 422.56 349.48C422.411 350.423 421.978 351.298 421.32 351.99L416.26 356.64C415.943 356.966 415.702 357.359 415.555 357.789C415.408 358.22 415.358 358.678 415.41 359.13L416.36 364.65C416.374 364.802 416.423 364.948 416.503 365.078C416.583 365.208 416.691 365.318 416.82 365.4L422.82 368.88L422.9 361.97C423.227 361.768 423.62 361.703 423.994 361.789C424.369 361.875 424.694 362.106 424.9 362.43C425.203 362.858 425.537 363.262 425.9 363.64C426.198 363.955 426.41 364.341 426.515 364.761C426.62 365.182 426.615 365.622 426.5 366.04L424 373C423.886 373.276 423.874 373.583 423.966 373.867C424.057 374.15 424.247 374.393 424.5 374.55L430.5 378.03L432.14 373.53L434.47 367.75C434.958 366.953 435.73 366.371 436.63 366.12C437.429 365.91 438.214 365.649 438.98 365.34C439.151 365.261 439.337 365.219 439.526 365.219C439.714 365.219 439.901 365.259 440.072 365.338C440.243 365.417 440.395 365.533 440.518 365.676C440.64 365.82 440.729 365.988 440.78 366.17L442.07 370.44C442.143 370.717 442.318 370.956 442.56 371.11L448.61 374.59L447.55 367.91L449.4 366.45C449.744 366.148 450.019 365.776 450.205 365.358C450.391 364.941 450.485 364.487 450.48 364.03L450.14 358.59C450.139 357.639 450.452 356.715 451.03 355.96C451.97 354.84 453.38 354.24 454.21 353.03C454.68 352.34 455.21 351.23 456.01 351.27L459.68 351.45C460.116 351.45 460.544 351.33 460.917 351.102C461.289 350.874 461.591 350.548 461.79 350.16L465.25 342.41C465.329 342.232 465.372 342.039 465.376 341.844C465.38 341.649 465.345 341.455 465.274 341.274C465.202 341.092 465.095 340.927 464.959 340.787C464.822 340.647 464.66 340.536 464.48 340.46L461.48 339.19C461.117 339.013 460.822 338.721 460.641 338.359C460.461 337.998 460.404 337.587 460.48 337.19C460.759 335.969 460.972 334.734 461.12 333.49C461.261 332.546 461.691 331.67 462.35 330.98L467.42 326.33C467.879 325.86 468.17 325.252 468.25 324.6L472.85 321.02L466.89 317.52ZM443.89 353.23C437.69 358.09 431.77 356.77 430.65 350.23C429.53 343.69 434.59 335.46 440.78 330.59C446.97 325.72 451.95 326.09 453.07 332.59C454.19 339.09 450.1 348.36 443.91 353.23H443.89Z" fill="#263238"/>
<path d="M421.3 352L416.3 356.6C415.909 356.995 415.642 357.496 415.53 358.04L422.96 362.34V361.94C423.287 361.738 423.68 361.673 424.054 361.759C424.429 361.845 424.754 362.076 424.96 362.4L432.13 358.26L421.3 352Z" fill="#455A64"/>
<path d="M434.06 338.06C434.628 337.182 435.242 336.334 435.9 335.52L428.76 331.4C428.444 331.537 428.105 331.612 427.76 331.62L424.08 331.44C423.523 331.431 422.982 331.626 422.56 331.99L433.56 338.33L434.06 338.06Z" fill="#455A64"/>
<path d="M472.89 321C472.727 320.93 472.549 320.904 472.374 320.925C472.198 320.946 472.031 321.013 471.89 321.12L466.83 324.45C466.502 324.649 466.11 324.713 465.736 324.627C465.363 324.541 465.037 324.312 464.83 323.99C464.529 323.561 464.195 323.156 463.83 322.78C463.53 322.464 463.318 322.076 463.215 321.653C463.111 321.231 463.12 320.788 463.24 320.37L463.72 319.08L465.89 317.65C466.038 317.537 466.215 317.468 466.401 317.45C466.586 317.433 466.773 317.467 466.94 317.55L472.89 321Z" fill="#455A64"/>
<path d="M457.94 319.5C457.88 319.44 457.83 319.36 457.77 319.29C457.471 318.976 457.26 318.589 457.156 318.168C457.053 317.747 457.061 317.307 457.18 316.89L465.18 311.79L459.18 308.33C459.057 308.261 458.926 308.207 458.79 308.17L454.97 307.32C454.551 307.246 454.119 307.302 453.733 307.48C453.347 307.659 453.025 307.952 452.81 308.32L449.23 315.15C449.022 315.509 448.743 315.822 448.41 316.07L456.51 320.75L457.94 319.5Z" fill="#455A64"/>
<path d="M433.39 317.94L440.82 322.23L446.94 316.63C447.055 316.18 447.138 315.722 447.19 315.26L441.19 311.78C440.995 311.682 440.773 311.65 440.558 311.69C440.343 311.729 440.147 311.838 440 312L434.29 316.49C433.856 316.876 433.543 317.38 433.39 317.94Z" fill="#455A64"/>
<path d="M474.32 327.28L473.37 321.76C473.366 321.587 473.312 321.419 473.215 321.276C473.119 321.132 472.983 321.019 472.825 320.95C472.666 320.881 472.492 320.858 472.321 320.885C472.15 320.911 471.99 320.986 471.86 321.1L466.8 324.43C466.473 324.632 466.08 324.697 465.706 324.611C465.331 324.525 465.006 324.294 464.8 323.97C464.5 323.544 464.165 323.142 463.8 322.77C463.502 322.453 463.291 322.065 463.185 321.643C463.08 321.221 463.085 320.779 463.2 320.36L465.78 313.36C465.852 313.185 465.883 312.996 465.873 312.807C465.863 312.619 465.811 312.434 465.721 312.268C465.631 312.102 465.506 311.957 465.353 311.845C465.201 311.733 465.026 311.656 464.84 311.62L461.03 310.77C460.611 310.694 460.179 310.75 459.792 310.928C459.405 311.107 459.083 311.401 458.87 311.77L455.28 318.6C454.792 319.397 454.02 319.979 453.12 320.23C452.321 320.44 451.536 320.701 450.77 321.01C450.599 321.091 450.413 321.134 450.224 321.135C450.034 321.136 449.847 321.096 449.676 321.017C449.504 320.937 449.352 320.821 449.23 320.677C449.108 320.532 449.019 320.363 448.97 320.18L447.68 315.91C447.638 315.745 447.554 315.594 447.437 315.471C447.32 315.347 447.174 315.256 447.012 315.205C446.85 315.154 446.677 315.145 446.511 315.179C446.344 315.213 446.189 315.289 446.06 315.4L440.35 319.89C440.006 320.192 439.731 320.564 439.545 320.982C439.359 321.399 439.265 321.853 439.27 322.31L439.61 327.75C439.609 328.7 439.296 329.624 438.72 330.38C437.78 331.5 436.9 332.67 436.06 333.89C435.79 334.252 435.44 334.546 435.038 334.751C434.635 334.955 434.191 335.065 433.74 335.07L430.07 334.89C429.638 334.899 429.218 335.026 428.853 335.257C428.488 335.488 428.193 335.814 428 336.2L424.49 344C424.403 344.181 424.354 344.378 424.345 344.578C424.337 344.779 424.37 344.979 424.442 345.167C424.515 345.354 424.624 345.525 424.765 345.668C424.906 345.811 425.074 345.924 425.26 346L428.26 347.27C428.623 347.447 428.918 347.739 429.099 348.101C429.279 348.462 429.336 348.873 429.26 349.27C428.981 350.491 428.768 351.726 428.62 352.97C428.481 353.914 428.051 354.792 427.39 355.48L422.32 360.13C422.003 360.456 421.762 360.849 421.615 361.279C421.468 361.71 421.418 362.168 421.47 362.62L422.47 368.15C422.476 368.322 422.531 368.489 422.629 368.631C422.726 368.773 422.862 368.884 423.02 368.952C423.178 369.02 423.352 369.042 423.522 369.015C423.692 368.988 423.851 368.914 423.98 368.8L429.04 365.47C429.368 365.271 429.76 365.207 430.134 365.293C430.507 365.379 430.833 365.608 431.04 365.93C431.346 366.355 431.68 366.759 432.04 367.14C432.34 367.456 432.552 367.844 432.655 368.267C432.759 368.689 432.75 369.132 432.63 369.55L430.05 376.55C429.979 376.725 429.947 376.914 429.957 377.103C429.967 377.291 430.019 377.476 430.109 377.642C430.199 377.808 430.325 377.953 430.477 378.065C430.629 378.177 430.804 378.254 430.99 378.29L434.81 379.14C435.229 379.214 435.661 379.158 436.047 378.979C436.434 378.801 436.756 378.508 436.97 378.14L440.55 371.31C441.045 370.515 441.819 369.933 442.72 369.68C443.52 369.474 444.306 369.214 445.07 368.9C445.241 368.821 445.427 368.779 445.616 368.779C445.805 368.779 445.991 368.819 446.162 368.898C446.333 368.977 446.485 369.093 446.608 369.236C446.73 369.38 446.819 369.548 446.87 369.73L448.16 374C448.203 374.163 448.287 374.312 448.403 374.434C448.519 374.556 448.664 374.647 448.825 374.698C448.985 374.749 449.156 374.758 449.322 374.725C449.487 374.692 449.641 374.618 449.77 374.51L455.48 370.02C455.824 369.718 456.099 369.345 456.287 368.928C456.475 368.511 456.571 368.058 456.57 367.6L456.23 362.16C456.226 361.209 456.539 360.283 457.12 359.53C458.05 358.41 458.94 357.24 459.77 356.02C460.043 355.662 460.394 355.37 460.795 355.165C461.197 354.961 461.64 354.85 462.09 354.84L465.77 355.02C466.206 355.019 466.634 354.898 467.006 354.671C467.378 354.443 467.68 354.118 467.88 353.73L471.33 345.99C471.417 345.809 471.467 345.612 471.475 345.412C471.483 345.211 471.45 345.011 471.378 344.823C471.306 344.636 471.196 344.465 471.055 344.322C470.915 344.179 470.746 344.066 470.56 343.99L467.56 342.72C467.195 342.545 466.898 342.254 466.717 341.892C466.536 341.529 466.48 341.117 466.56 340.72C466.835 339.499 467.046 338.264 467.19 337.02C467.337 336.079 467.77 335.206 468.43 334.52L473.49 329.86C473.817 329.522 474.061 329.114 474.205 328.667C474.349 328.219 474.388 327.745 474.32 327.28ZM449.92 356.7C443.73 361.57 437.8 360.24 436.68 353.7C435.56 347.16 439.68 337.97 445.86 333.1C452.04 328.23 457.98 329.56 459.1 336.1C460.22 342.64 456.11 351.83 449.92 356.7Z" fill="#37474F"/>
<path d="M438.3 264.07L432.38 260.66C432.238 260.586 432.08 260.548 431.92 260.548C431.76 260.548 431.602 260.586 431.46 260.66L420.76 265.48C420.59 265.561 420.404 265.604 420.215 265.605C420.027 265.606 419.84 265.566 419.669 265.486C419.498 265.407 419.347 265.291 419.226 265.146C419.105 265.002 419.018 264.832 418.97 264.65C418.394 262.793 417.595 261.014 416.59 259.35C416.371 258.958 416.243 258.521 416.215 258.073C416.188 257.625 416.261 257.176 416.43 256.76L423.56 242.38C423.734 242.013 423.765 241.595 423.646 241.206C423.528 240.818 423.269 240.487 422.92 240.28L415.19 235.82C414.838 235.619 414.424 235.557 414.029 235.648C413.634 235.739 413.288 235.975 413.06 236.31L404.16 249.7C403.883 250.056 403.531 250.345 403.127 250.546C402.724 250.747 402.28 250.854 401.83 250.86C400.794 250.833 399.758 250.88 398.73 251V241.23L392.79 237.8C392.63 237.726 392.453 237.695 392.278 237.71C392.102 237.726 391.934 237.788 391.79 237.89L379.79 244.83C379.405 245.083 379.078 245.414 378.83 245.801C378.581 246.189 378.418 246.625 378.35 247.08L377.15 260.45C377.014 261.396 376.575 262.273 375.9 262.95C373.518 265.155 371.286 267.517 369.22 270.02C368.928 270.341 368.553 270.574 368.136 270.692C367.718 270.811 367.276 270.81 366.86 270.69L359.14 267.99C358.741 267.866 358.312 267.878 357.921 268.025C357.53 268.171 357.199 268.444 356.98 268.8L348.14 284.1C347.943 284.47 347.875 284.894 347.945 285.307C348.016 285.719 348.221 286.097 348.53 286.38L354.72 291.72C355.035 292.019 355.259 292.401 355.366 292.823C355.472 293.244 355.456 293.687 355.32 294.1C354.182 297.136 353.253 300.247 352.54 303.41C352.292 304.333 351.752 305.151 351 305.74L340 313.47C339.639 313.755 339.342 314.114 339.13 314.523C338.918 314.931 338.795 315.38 338.77 315.84V329.72C338.758 329.893 338.792 330.066 338.867 330.222C338.943 330.378 339.057 330.512 339.2 330.61L345.12 334.03L353.91 329.86C354.24 330.546 354.607 331.214 355.01 331.86C355.229 332.252 355.357 332.689 355.384 333.137C355.412 333.585 355.339 334.034 355.17 334.45L348.04 348.83C347.863 349.194 347.83 349.611 347.947 349.998C348.063 350.385 348.321 350.714 348.67 350.92L356.41 355.39C356.763 355.59 357.178 355.65 357.573 355.557C357.968 355.465 358.313 355.226 358.54 354.89L367.43 341.53C367.702 341.172 368.053 340.881 368.455 340.68C368.857 340.479 369.3 340.373 369.75 340.37C371.696 340.412 373.64 340.217 375.54 339.79C375.72 339.739 375.91 339.729 376.095 339.761C376.28 339.792 376.456 339.865 376.609 339.973C376.763 340.082 376.89 340.223 376.982 340.387C377.074 340.55 377.128 340.733 377.14 340.92L378.32 352.59C378.323 352.754 378.367 352.914 378.447 353.057C378.528 353.2 378.642 353.322 378.78 353.41L384.69 356.81L391.79 346.39C392.173 346.137 392.499 345.806 392.745 345.418C392.992 345.03 393.153 344.595 393.22 344.14L394.42 330.77C394.495 330.337 394.674 329.928 394.943 329.58C395.211 329.231 395.56 328.953 395.96 328.77C399.487 327.246 402.665 325.017 405.3 322.22C405.605 321.91 405.987 321.687 406.408 321.575C406.828 321.462 407.271 321.464 407.69 321.58L412.43 323.25C412.829 323.378 413.259 323.368 413.652 323.223C414.046 323.078 414.379 322.806 414.6 322.45L423.43 307.15C423.628 306.781 423.698 306.358 423.629 305.945C423.56 305.533 423.357 305.154 423.05 304.87L419 301.39C418.687 301.084 418.461 300.701 418.345 300.279C418.229 299.858 418.228 299.413 418.34 298.99C419.218 295.362 419.588 291.63 419.44 287.9C419.448 287.445 419.556 286.998 419.754 286.589C419.953 286.179 420.238 285.818 420.59 285.53L431.59 277.8C431.948 277.515 432.243 277.158 432.453 276.751C432.663 276.344 432.785 275.897 432.81 275.44L438.06 269.15L438.3 264.07ZM385.81 319.07C374.59 325.54 367.62 320.95 367.62 308C367.62 295.05 376.89 279.18 388.1 272.71C399.31 266.24 406.1 270.94 406.1 283.89C406.1 296.84 397 312.61 385.81 319.09V319.07Z" fill="#263238"/>
<path d="M421.19 247.15L423.55 242.4C423.724 242.033 423.755 241.615 423.636 241.226C423.518 240.838 423.259 240.507 422.91 240.3L415.18 235.84C414.828 235.639 414.414 235.577 414.019 235.668C413.624 235.759 413.278 235.995 413.05 236.33L404.16 249.7C403.996 249.922 403.797 250.114 403.57 250.27L413.52 256.01L421.19 247.15Z" fill="#455A64"/>
<path d="M351.86 304.84C351.626 305.184 351.339 305.487 351.01 305.74L340.01 313.47C339.717 313.699 339.47 313.98 339.28 314.3L345.99 318.17L360.56 309.88L351.86 304.84Z" fill="#455A64"/>
<path d="M358.53 267.9C358.219 267.912 357.916 268 357.647 268.157C357.379 268.314 357.153 268.535 356.99 268.8L348.15 284.1C347.965 284.442 347.895 284.835 347.95 285.22L355.57 289.62L367.67 273.25L358.53 267.9Z" fill="#455A64"/>
<path d="M378.6 246.28L388.02 251.72L398.73 245.54V241.23L392.79 237.8C392.63 237.725 392.454 237.695 392.278 237.71C392.102 237.726 391.934 237.788 391.79 237.89L379.79 244.83C379.258 245.184 378.844 245.689 378.6 246.28Z" fill="#455A64"/>
<path d="M438.72 278.85V265C438.747 264.83 438.725 264.656 438.655 264.499C438.586 264.342 438.472 264.208 438.328 264.114C438.185 264.02 438.017 263.969 437.845 263.969C437.673 263.968 437.504 264.017 437.36 264.11L426.66 268.94C426.49 269.021 426.305 269.064 426.117 269.065C425.929 269.066 425.744 269.026 425.573 268.946C425.403 268.867 425.253 268.751 425.133 268.606C425.013 268.461 424.926 268.292 424.88 268.11C424.296 266.255 423.494 264.476 422.49 262.81C422.271 262.418 422.143 261.981 422.115 261.533C422.088 261.085 422.161 260.636 422.33 260.22L429.46 245.84C429.635 245.474 429.667 245.057 429.551 244.668C429.434 244.28 429.177 243.949 428.83 243.74L421.09 239.27C420.737 239.072 420.322 239.014 419.928 239.106C419.533 239.199 419.188 239.436 418.96 239.77L410.07 253.14C409.796 253.498 409.443 253.788 409.039 253.987C408.635 254.187 408.19 254.29 407.74 254.29C405.797 254.257 403.856 254.455 401.96 254.88C401.779 254.931 401.588 254.941 401.403 254.909C401.217 254.878 401.041 254.805 400.887 254.697C400.733 254.589 400.605 254.448 400.512 254.284C400.419 254.12 400.364 253.938 400.35 253.75L399.18 242C399.185 241.829 399.142 241.661 399.055 241.514C398.968 241.367 398.841 241.248 398.689 241.17C398.537 241.093 398.366 241.06 398.197 241.076C398.027 241.092 397.865 241.156 397.73 241.26L385.73 248.2C385.345 248.451 385.018 248.78 384.77 249.166C384.522 249.552 384.358 249.986 384.29 250.44L383.09 263.82C382.952 264.766 382.514 265.642 381.84 266.32C379.458 268.525 377.226 270.887 375.16 273.39C374.869 273.711 374.493 273.944 374.075 274.06C373.657 274.177 373.215 274.174 372.8 274.05L365.08 271.36C364.682 271.235 364.254 271.246 363.863 271.39C363.472 271.535 363.14 271.806 362.92 272.16L354.08 287.47C353.883 287.84 353.815 288.264 353.885 288.677C353.956 289.089 354.161 289.467 354.47 289.75L360.66 295.08C360.975 295.381 361.199 295.765 361.305 296.188C361.411 296.611 361.396 297.056 361.26 297.47C360.122 300.506 359.193 303.617 358.48 306.78C358.232 307.703 357.692 308.521 356.94 309.11L345.94 316.84C345.579 317.125 345.282 317.484 345.07 317.893C344.858 318.301 344.735 318.75 344.71 319.21V333.09C344.688 333.259 344.714 333.431 344.786 333.586C344.858 333.741 344.972 333.872 345.116 333.964C345.259 334.057 345.426 334.106 345.597 334.107C345.768 334.108 345.935 334.061 346.08 333.97L356.78 329.15C356.948 329.069 357.133 329.026 357.32 329.024C357.508 329.022 357.693 329.062 357.863 329.14C358.033 329.219 358.184 329.334 358.304 329.477C358.425 329.621 358.512 329.789 358.56 329.97C359.137 331.831 359.94 333.614 360.95 335.28C361.169 335.672 361.297 336.109 361.324 336.557C361.352 337.005 361.279 337.454 361.11 337.87L354 352.29C353.823 352.654 353.79 353.071 353.907 353.458C354.023 353.845 354.281 354.174 354.63 354.38L362.37 358.85C362.723 359.05 363.138 359.11 363.533 359.017C363.928 358.925 364.273 358.686 364.5 358.35L373.37 345C373.645 344.645 373.996 344.357 374.398 344.156C374.799 343.956 375.241 343.847 375.69 343.84C377.637 343.883 379.582 343.685 381.48 343.25C381.661 343.201 381.851 343.192 382.036 343.225C382.22 343.257 382.396 343.33 382.55 343.438C382.703 343.546 382.831 343.686 382.925 343.849C383.018 344.012 383.074 344.193 383.09 344.38L384.26 356.06C384.253 356.231 384.294 356.401 384.38 356.55C384.466 356.698 384.593 356.819 384.746 356.898C384.898 356.976 385.07 357.01 385.24 356.995C385.411 356.979 385.574 356.915 385.71 356.81L397.71 349.81C398.095 349.561 398.422 349.233 398.669 348.846C398.916 348.459 399.076 348.024 399.14 347.57L400.35 334.19C400.488 333.247 400.926 332.374 401.6 331.7C403.979 329.495 406.207 327.133 408.27 324.63C408.56 324.307 408.935 324.073 409.353 323.954C409.771 323.836 410.213 323.838 410.63 323.96L418.35 326.65C418.749 326.778 419.179 326.768 419.572 326.623C419.966 326.478 420.299 326.206 420.52 325.85L429.36 310.54C429.556 310.172 429.624 309.749 429.553 309.338C429.483 308.927 429.277 308.552 428.97 308.27L422.8 303C422.484 302.701 422.26 302.319 422.154 301.897C422.048 301.476 422.064 301.033 422.2 300.62C423.33 297.578 424.259 294.464 424.98 291.3C425.23 290.378 425.77 289.561 426.52 288.97L437.52 281.24C437.878 280.95 438.171 280.587 438.378 280.175C438.585 279.762 438.701 279.311 438.72 278.85ZM391.72 322.5C380.5 328.97 371.41 323.72 371.41 310.77C371.41 297.82 380.5 282.07 391.72 275.6C402.94 269.13 412 274.37 412 287.32C412 300.27 402.93 316 391.72 322.5Z" fill="#37474F"/>
<path d="M438.3 264.07C438.154 263.991 437.991 263.95 437.825 263.95C437.659 263.95 437.496 263.991 437.35 264.07L426.65 268.89C426.481 268.971 426.297 269.014 426.109 269.016C425.922 269.018 425.737 268.978 425.566 268.9C425.396 268.821 425.246 268.706 425.125 268.563C425.005 268.419 424.918 268.251 424.87 268.07C424.471 266.774 423.959 265.516 423.34 264.31L431.44 260.66C431.583 260.585 431.743 260.545 431.905 260.545C432.067 260.545 432.226 260.585 432.37 260.66L438.3 264.07Z" fill="#455A64"/>
<path d="M522.54 524.67V523.53C522.09 524.87 520.01 530.61 516.85 533.53C514.34 535.82 510.92 538.47 510.04 541.02C509.16 543.57 514.81 544.56 517.15 544.15C519.88 543.67 523.4 542.15 525.32 539.76C526.67 538.11 527.53 536.14 528.49 534.84C529.45 533.54 531.68 532.08 532.2 530.57C532.49 529.74 532.15 527.93 531.74 526.39C531.33 524.85 530.98 523.39 530.49 523.57V524.44C529.352 525.336 527.938 525.81 526.49 525.78C525.35 525.79 522.53 525.56 522.54 524.67Z" fill="#263238"/>
<path d="M514.58 535.51C515.36 534.81 516.14 534.13 516.85 533.51C519.06 531.51 520.74 528.09 521.7 525.76C522.251 524.432 522.537 523.008 522.54 521.57V517H530.49V524.38V524.58C530.11 526.23 526.49 530.63 524.39 533.5C522.99 535.42 520.39 537.87 517.19 538.29C514.16 538.72 512.63 537.78 514.58 535.51Z" fill="#FFA8A7"/>
<path d="M491.5 516.83V515.69C491.05 517.02 488.97 522.77 485.81 525.69C483.3 527.98 479.88 530.62 479.01 533.17C478.14 535.72 483.77 536.72 486.12 536.31C488.84 535.82 492.37 534.31 494.28 531.92C495.63 530.26 496.49 528.3 497.46 526.99C498.43 525.68 500.64 524.24 501.16 522.73C501.45 521.9 501.11 520.08 500.71 518.55C500.31 517.02 499.94 515.6 499.46 515.73V516.6C498.319 517.492 496.907 517.965 495.46 517.94C494.31 517.94 491.49 517.71 491.5 516.83Z" fill="#263238"/>
<path d="M483.54 527.66C484.32 526.97 485.1 526.29 485.81 525.66C488.02 523.66 489.7 520.24 490.66 517.91C491.217 516.583 491.503 515.159 491.5 513.72V509.19H499.5V516.57V516.77C499.11 518.42 495.5 522.82 493.39 525.69C492 527.61 489.39 530.05 486.2 530.48C483.01 530.91 481.59 529.93 483.54 527.66Z" fill="#FFA8A7"/>
<path d="M528.91 401C535.08 414.48 528.69 461.94 528.69 461.94C528.87 464.13 531.37 468.43 532.31 478.05C533.41 489.42 530.58 517.97 530.58 517.97C529.372 518.667 528.013 519.061 526.619 519.116C525.226 519.172 523.84 518.889 522.58 518.29C522.58 518.29 514.99 475.29 513.58 463.99C512.33 454.12 509.94 432.43 509.94 432.43L503.16 463.94C504.151 467.117 504.87 470.372 505.31 473.67C505.95 480.32 499.51 511.28 499.51 511.28C499.51 511.28 496.76 512.28 491.51 511.52C491.51 511.52 489.23 470.44 488.63 462.43C487.63 448.97 491.19 407 493.63 399.03L528.91 401Z" fill="#37474F"/>
<path d="M509.89 432.43L507.89 419.91C507.89 419.91 499.42 418.16 495.58 414.55C498.229 417.655 501.692 419.958 505.58 421.2L507.82 430.84L503.91 460L509.89 432.43Z" fill="#263238"/>
<path d="M496.85 392.51C501.52 376.97 507.47 353.83 505.23 353.83C502.99 353.83 499.53 353.62 497 356.16C492 361.16 491.11 370.44 490.06 375.74C489.01 381.04 488.27 385.21 486.6 393.06C485.34 399.06 483.79 406.23 481.54 410.83C481.12 411.653 480.406 412.288 479.54 412.61C477.28 413.53 476.24 414.7 474.43 416.04C473.01 417.04 471.93 417.22 472.02 417.65C472.175 418.129 472.505 418.533 472.944 418.779C473.384 419.026 473.9 419.098 474.39 418.98C475.483 418.756 476.544 418.4 477.55 417.92C476.527 419.639 475.234 421.182 473.72 422.49C470.26 425.49 469.72 427.62 475.51 428.67C479.12 429.33 482.39 427.6 486.51 420.11C488.073 417.381 489.44 414.544 490.6 411.62C493.36 404 495.44 397.21 496.85 392.51Z" fill="#FFA8A7"/>
<path d="M518 354.2C525.91 354.74 526.46 358.56 528.44 362.74C529.893 365.957 530.029 369.614 528.82 372.93L523.3 388.87C523.3 388.87 525.89 395.11 528.88 401C515.05 408.72 497.78 404.67 493.62 399C493.45 397.81 494.51 388.47 495.17 382.37C492.74 376.25 492.09 372.37 493.12 368.37C495.03 360.87 502.44 353.57 505.71 353.84L518 354.2Z" fill="#2E2E2E"/>
<path d="M510.43 347.64H513.5C517.785 347.637 521.894 345.934 524.924 342.904C527.954 339.874 529.658 335.765 529.66 331.48C529.66 327.169 527.949 323.035 524.901 319.986C521.854 316.937 517.721 315.223 513.41 315.22H510.51C506.2 315.223 502.066 316.937 499.019 319.986C495.972 323.035 494.26 327.169 494.26 331.48C494.263 335.767 495.968 339.877 499 342.907C502.032 345.938 506.143 347.64 510.43 347.64Z" fill="#263238"/>
<path d="M538.32 356.16C535.787 356.16 533.358 355.154 531.567 353.363C529.776 351.572 528.77 349.143 528.77 346.61V326.16C531.303 326.16 533.732 327.166 535.523 328.957C537.314 330.748 538.32 333.177 538.32 335.71V356.16Z" fill="#263238"/>
<path d="M530.52 322.53L528.12 326.38C528.365 326.55 528.641 326.668 528.933 326.728C529.225 326.788 529.525 326.788 529.817 326.728C530.109 326.668 530.385 326.55 530.63 326.38C530.875 326.21 531.082 325.992 531.24 325.74C531.556 325.215 531.658 324.588 531.524 323.991C531.39 323.393 531.03 322.869 530.52 322.53Z" fill="#263238"/>
<path d="M500.08 322.38C498.21 323.49 495.9 328.19 496.08 338.05C496.28 346.4 498.98 348.46 500.34 349.05C501.7 349.64 504.34 349.28 506.88 348.86V353.86C506.88 353.86 503.35 357.95 503.57 360.25C503.79 362.55 508.66 363.1 511.96 360.85C514.098 359.311 515.933 357.388 517.37 355.18V343.08C517.638 343.409 517.969 343.682 518.343 343.882C518.717 344.082 519.128 344.206 519.55 344.246C519.973 344.286 520.399 344.241 520.804 344.115C521.209 343.989 521.585 343.783 521.91 343.51C524.72 341.64 524.83 337.02 523.19 335.36C521.55 333.7 518.03 334.22 517.37 336.52C517.37 336.52 513.3 336.66 507.89 333.69C505.793 332.549 503.993 330.931 502.637 328.966C501.28 327.001 500.404 324.745 500.08 322.38Z" fill="#FFA8A7"/>
<path d="M506.39 336C506.381 336.141 506.399 336.282 506.444 336.415C506.489 336.549 506.56 336.672 506.653 336.778C506.746 336.884 506.859 336.97 506.986 337.032C507.112 337.094 507.25 337.131 507.39 337.14C507.668 337.146 507.937 337.046 508.143 336.86C508.35 336.674 508.477 336.417 508.5 336.14C508.513 335.861 508.415 335.589 508.228 335.383C508.04 335.177 507.779 335.053 507.5 335.04C507.222 335.027 506.949 335.125 506.743 335.312C506.537 335.5 506.413 335.761 506.4 336.04L506.39 336Z" fill="#263238"/>
<path d="M505.17 343L502.73 343.78C502.773 343.944 502.85 344.097 502.954 344.231C503.059 344.364 503.189 344.475 503.338 344.556C503.487 344.638 503.651 344.688 503.819 344.704C503.988 344.72 504.159 344.702 504.32 344.65C504.647 344.538 504.918 344.304 505.077 343.996C505.235 343.688 505.269 343.332 505.17 343Z" fill="#F28F8F"/>
<path d="M497.77 332.72L499.9 331.25C499.811 331.106 499.694 330.982 499.555 330.885C499.416 330.789 499.259 330.721 499.093 330.687C498.927 330.654 498.756 330.654 498.591 330.689C498.425 330.724 498.268 330.792 498.13 330.89C497.846 331.09 497.651 331.392 497.584 331.733C497.516 332.074 497.583 332.427 497.77 332.72Z" fill="#263238"/>
<path d="M498.26 335.19C498.247 335.468 498.345 335.741 498.532 335.947C498.72 336.153 498.982 336.277 499.26 336.29C499.538 336.303 499.811 336.205 500.017 336.018C500.223 335.83 500.347 335.568 500.36 335.29C500.371 335.149 500.353 335.008 500.309 334.873C500.264 334.739 500.193 334.616 500.1 334.509C500.007 334.403 499.893 334.317 499.766 334.255C499.639 334.193 499.501 334.158 499.36 334.15C499.077 334.145 498.803 334.25 498.597 334.445C498.392 334.64 498.27 334.907 498.26 335.19Z" fill="#263238"/>
<path d="M503.39 334.59L503.23 340.91L499.9 339.88L503.39 334.59Z" fill="#F28F8F"/>
<path d="M506.92 348.87C509.6 348.51 515.13 346.93 515.99 344.74C515.65 345.849 514.971 346.825 514.05 347.53C512.4 348.95 506.92 350.53 506.92 350.53V348.87Z" fill="#F28F8F"/>
<path opacity="0.1" d="M514.49 402.5C515.573 402.251 516.596 401.789 517.499 401.14C518.401 400.491 519.165 399.668 519.745 398.72C520.326 397.772 520.711 396.717 520.878 395.618C521.045 394.519 520.992 393.398 520.72 392.32C520.67 392.15 520.62 392 520.58 391.88C520.39 391.301 520.011 390.803 519.502 390.467C518.994 390.131 518.387 389.977 517.78 390.03C518.666 389.439 519.427 388.679 520.019 387.794C520.611 386.909 521.023 385.915 521.23 384.87L522.91 376.44C522.91 376.44 519.79 366.54 520.11 363.14L528.05 363.6L529.05 364.32C529.893 367.14 529.816 370.156 528.83 372.93L523.31 388.87C523.31 388.87 525.9 395.11 528.89 401C524.393 403.425 519.429 404.859 514.332 405.204C509.234 405.549 504.122 404.797 499.34 403C504.376 403.795 509.517 403.625 514.49 402.5Z" fill="black"/>
<path d="M525.92 394.78C523 395.56 514.11 396.61 513.45 390.37C513.111 385.399 513.111 380.411 513.45 375.44C513.855 368.067 516.511 360.996 521.06 355.18L521.42 354.74C521.42 354.74 520.13 353.69 517.42 354.18C513.604 358.06 510.903 362.896 509.6 368.18C505.6 367.6 500.6 367.18 497.26 366.92C498.816 361.565 502.249 356.95 506.93 353.92C505.798 353.482 504.547 353.461 503.4 353.86C498.647 356.75 495.161 361.329 493.64 366.68C490.46 375.49 490.58 408.32 490.64 419.98L496.13 411.24H531.13C530.69 398.66 525.92 394.78 525.92 394.78Z" fill="#37474F"/>
<path d="M543 386.25C543 386.25 539.27 378.25 534.08 366.46C530.33 357.92 529.5 355.99 523.53 355.07L521.43 354.74C518.6 364.03 520.55 368.23 524.27 374.59L531.63 388.85C534.58 388.27 543.1 387.14 543 386.25Z" fill="#FFA8A7"/>
<path d="M531.66 388.85C533.84 393.24 535.66 395.96 538.36 396.67C541.06 397.38 562.91 397.13 562.91 397.13V388.85L542.07 385.68L531.66 388.85Z" fill="#FFA8A7"/>
<path d="M575.43 479.76H541V546.85C540.84 549.51 542.5 552.2 546 554.23C552.73 558.12 563.64 558.12 570.37 554.23C573.74 552.29 575.42 549.74 575.42 547.23L575.43 479.76Z" fill="#2E2E2E"/>
<path d="M571.81 473.66C568 471.17 570.37 465.11 570.37 465.11H546C546 465.11 548.3 471.11 544.56 473.66C539.3 477.57 539.77 483.2 545.98 486.79C552.71 490.68 563.62 490.68 570.35 486.79C576.59 483.2 577.06 477.57 571.81 473.66Z" fill="#2E2E2E"/>
<path opacity="0.05" d="M571.81 473.66C568 471.17 570.37 465.11 570.37 465.11H546C546 465.11 548.3 471.11 544.56 473.66C539.3 477.57 539.77 483.2 545.98 486.79C552.71 490.68 563.62 490.68 570.35 486.79C576.59 483.2 577.06 477.57 571.81 473.66Z" fill="black"/>
<path opacity="0.05" d="M569.71 468.1C569.811 467.077 570.036 466.069 570.38 465.1H546C546.339 466.07 546.557 467.077 546.65 468.1C553.2 471.5 563.16 471.5 569.71 468.1Z" fill="black"/>
<path d="M575.43 453.39H573.43C572.552 452.462 571.541 451.67 570.43 451.04C563.7 447.16 552.79 447.16 546.06 451.04C544.949 451.67 543.938 452.462 543.06 453.39H541.06V458.08C541.06 460.63 542.74 463.17 546.11 465.08C552.84 468.97 563.75 468.97 570.48 465.08C573.85 463.14 575.53 460.6 575.53 458.08L575.43 453.39Z" fill="#2E2E2E"/>
<path d="M546 460.42C552.73 464.31 563.64 464.31 570.37 460.42C577.1 456.53 577.1 450.24 570.37 446.35C563.64 442.46 552.73 442.47 546 446.35C539.27 450.23 539.28 456.54 546 460.42Z" fill="#2E2E2E"/>
<path opacity="0.4" d="M546 460.42C552.73 464.31 563.64 464.31 570.37 460.42C577.1 456.53 577.1 450.24 570.37 446.35C563.64 442.46 552.73 442.47 546 446.35C539.27 450.23 539.28 456.54 546 460.42Z" fill="white"/>
<path opacity="0.2" d="M558.21 549.83C557.319 549.83 556.464 549.476 555.834 548.846C555.204 548.216 554.85 547.361 554.85 546.47V498.54C554.85 497.649 555.204 496.794 555.834 496.164C556.464 495.534 557.319 495.18 558.21 495.18C559.099 495.183 559.952 495.538 560.579 496.168C561.207 496.797 561.56 497.651 561.56 498.54V546.47C561.56 547.359 561.207 548.212 560.579 548.842C559.952 549.472 559.099 549.827 558.21 549.83Z" fill="black"/>
<path opacity="0.2" d="M569.68 547.8C568.07 548.39 566.77 547.56 566.77 545.95V497.13C566.824 496.255 567.126 495.414 567.642 494.706C568.157 493.997 568.864 493.45 569.68 493.13C571.29 492.55 572.59 493.37 572.59 494.98V543.81C572.536 544.683 572.233 545.523 571.717 546.23C571.202 546.937 570.495 547.481 569.68 547.8Z" fill="black"/>
<path opacity="0.2" d="M546.73 547.8C548.34 548.39 549.64 547.56 549.64 545.95V497.13C549.587 496.255 549.284 495.414 548.769 494.706C548.253 493.997 547.546 493.45 546.73 493.13C545.12 492.55 543.82 493.37 543.82 494.98V543.81C543.875 544.683 544.177 545.523 544.693 546.23C545.209 546.937 545.915 547.481 546.73 547.8Z" fill="black"/>
<path d="M562.91 332.71L555.91 328.65L551.47 349.54C551.47 349.54 555.91 356.79 555.91 361.48V450.6L560.56 456.04L562.95 454.66V365.55C562.95 360.86 567.38 358.73 567.38 358.73L562.91 332.71Z" fill="#E0E0E0"/>
<path d="M560.52 334.09L553.52 330.02L549.08 350.91C549.08 350.91 553.52 358.17 553.52 362.91V452L560.52 456.07V366.92C560.52 362.23 564.96 360.1 564.96 360.1L560.52 334.09Z" fill="#EBEBEB"/>
<path d="M553.49 330.02L555.87 328.65L562.91 332.71L560.52 334.09L553.49 330.02Z" fill="#FAFAFA"/>
<path d="M562.91 332.71L560.52 334.09L564.96 360.1L567.34 358.73L562.91 332.71Z" fill="#F5F5F5"/>
<path d="M562.91 382.28C563.27 380.71 565.75 379.83 565.5 382.45C565.25 385.07 566.5 386.9 566.87 388.12C567.62 390.69 567.45 395.54 566.44 396.5C565.92 397.111 565.271 397.599 564.539 397.929C563.808 398.259 563.013 398.423 562.21 398.41C560.263 398.307 558.408 397.554 556.94 396.27C555.32 395.01 553.59 387.77 557.35 388.79C562.94 390.32 562.91 386.3 562.91 386.3V382.28Z" fill="#FFA8A7"/>
<path d="M379.06 406C382.99 406.79 385.32 409.68 390.06 417C394.8 424.32 402.14 437 402.14 437L420.52 444L419.73 452.27C419.73 452.27 399.68 448.71 396.93 446.67C394.18 444.63 383.57 429.25 383.57 429.25L379.06 406Z" fill="#FFA8A7"/>
<path d="M375.77 404.51C379.85 405.23 383.89 406.22 386.4 410.11C388.91 414 398.05 428.86 398.05 428.86C398.05 428.86 394.72 436.68 388.64 437.86L379.9 425.27L375.77 404.51Z" fill="#E6E6E6"/>
<path d="M360.81 404.84C359.41 405.18 358 405.27 356.76 405.52C350.69 406.74 349.57 409.89 349.42 417.23C349.18 429.5 349.42 457.9 349.42 457.9C354.83 461.83 374.81 464.24 386.19 455.9C386.19 455.9 385.61 423.23 385.61 417.44C385.61 411.65 382.4 404.7 373.52 404.18L360.81 404.84Z" fill="#F5F5F5"/>
<path d="M347.98 571.45H355.83V558.01H347.98V571.45Z" fill="#FFA8A7"/>
<path d="M380.1 561.27L387.94 561.54L388.34 547.32L380.1 547.05V561.27Z" fill="#FFA8A7"/>
<path d="M387.3 455.93L385.89 424L361.19 428C361.252 433.048 360.958 438.094 360.31 443.1C359.85 447.04 356.07 452.41 349.37 454.18C349.083 459.339 349.063 464.509 349.31 469.67C349.43 473.39 347.68 514.52 347.68 514.52C347.5 516.68 345.42 520.52 345.26 528.28C345.03 539.55 347.65 564.71 347.65 564.71C349.006 565.377 350.491 565.738 352.001 565.767C353.512 565.797 355.01 565.494 356.39 564.88C356.39 564.88 361.67 528.72 363.08 517.57C364.3 507.84 369.43 480.46 369.43 480.46L375.43 513.37C374.51 517.462 374.173 521.664 374.43 525.85C374.79 531 379.57 556.85 379.57 556.85C380.94 557.621 382.462 558.082 384.029 558.202C385.596 558.321 387.17 558.095 388.64 557.54C388.64 557.54 389.1 516.98 389.2 512.24C389.33 506.87 387.3 455.93 387.3 455.93Z" fill="#37474F"/>
<path d="M385.89 424C385.63 417.69 384.75 411.86 379.31 406.4C377.823 404.929 375.812 404.109 373.72 404.12H372.55C372.55 404.12 378.01 408.45 380.15 414.74C381.326 418.72 381.909 422.851 381.88 427L385.89 424Z" fill="#37474F"/>
<path d="M355.84 567.57V566.45C356.26 566.45 356.52 566.86 356.68 567.87C356.8 568.59 356.9 569.14 357.14 570.09C357.486 571.459 357.944 572.797 358.51 574.09C359.62 576.83 360.51 577.84 363.09 581.04C363.965 581.922 364.78 582.86 365.53 583.85C366.01 584.69 366.17 587.04 365.37 587.58C362.37 589.58 357.9 589.58 354.72 588.68C353.533 588.349 352.465 587.684 351.644 586.764C350.824 585.844 350.284 584.708 350.09 583.49C349.98 582.76 350.02 582.02 349.94 581.29C349.651 579.631 348.965 578.066 347.94 576.73C347.354 575.957 346.848 575.126 346.43 574.25C345.77 572.64 346.3 570.82 346.72 569.25C347.09 567.86 347.48 566.33 347.96 566.46V567.32C349.075 568.199 350.46 568.666 351.88 568.64C353.06 568.68 355.85 568.45 355.84 567.57Z" fill="#263238"/>
<path d="M388 559.12C388.41 559.12 388.74 559.71 389.64 560.68C390.979 562.041 392.537 563.167 394.25 564.01C397.19 565.48 402.91 567.74 405.5 568.91C407.11 569.63 407.04 571.59 405.37 572.7C403.7 573.81 399.66 574.61 394.82 573.53C392.18 572.94 388.75 570.53 386.57 570.63C384.39 570.73 380.33 570.73 378.73 569.63C377.13 568.53 377.73 566.17 378.22 564.14C378.72 561.92 379.33 558.47 380.07 558.62V559.38C381.01 560.81 385.88 561.38 387.96 560.38L388 559.12Z" fill="#263238"/>
<path d="M369.43 480.48C373.488 479.219 377.219 477.082 380.36 474.22C380.36 474.22 378.25 478.16 371.98 481.84L374.98 511.11L369.43 480.48Z" fill="#263238"/>
<path d="M374.72 389.54C380.679 389.54 385.51 384.709 385.51 378.75C385.51 372.791 380.679 367.96 374.72 367.96C368.761 367.96 363.93 372.791 363.93 378.75C363.93 384.709 368.761 389.54 374.72 389.54Z" fill="#263238"/>
<path d="M356.07 386.42C356.07 386.42 357.82 394.63 358.52 395.98C358.987 396.812 359.757 397.432 360.67 397.71L360.54 391.94L356.07 386.42Z" fill="#263238"/>
<path d="M358.26 374.65C357.649 374.58 357.03 374.65 356.449 374.854C355.869 375.059 355.343 375.392 354.91 375.83C353.47 377.3 354.27 381.91 356.07 386.42L359.36 386.8L358.26 374.65Z" fill="#263238"/>
<path d="M360.35 386.8C359.69 387.19 358.75 385.92 357.93 385.07C357.11 384.22 354.46 383.07 353.13 385.85C351.8 388.63 354.3 392.46 356.4 393.12C360 394.25 360.54 391.94 360.54 391.94L360.81 405.35C365.3 411.1 377.74 410.61 372.56 404.6V400.6C374.166 400.859 375.796 400.943 377.42 400.85C380.07 400.44 381.74 398.35 382.54 395.48C383.84 390.87 384.33 387.14 383.23 378.07C382.03 368.13 370.47 368.07 364.23 371.96C357.99 375.85 360.35 386.8 360.35 386.8Z" fill="#FFA8A7"/>
<path d="M361.18 430C361.36 421.84 359.5 409.74 356.76 405.56C358.027 404.98 359.424 404.746 360.81 404.88C360.81 404.88 365.95 412.88 365.73 430H361.18Z" fill="#37474F"/>
<path d="M360.35 387.91C360.02 387.91 358.75 385.82 357.93 385.07C356.79 384.07 358.26 374.65 358.26 374.65C357.867 373.824 357.732 372.898 357.873 371.993C358.013 371.089 358.424 370.248 359.05 369.58C360.61 367.87 362.78 365.77 369.86 366.58C374.86 367.17 380.4 368.75 384.86 366.58C385.268 368.024 385.235 369.556 384.766 370.981C384.298 372.406 383.415 373.659 382.23 374.58C382.23 374.58 380.62 375.58 376.4 376.13C372.499 376.425 368.578 376.351 364.69 375.91C363.47 375.74 363.21 376.91 362.55 380.17C362 383.06 361.46 387.89 360.35 387.91Z" fill="#263238"/>
<path d="M358.27 375.38L354.27 373.24C354.398 372.974 354.577 372.736 354.799 372.541C355.02 372.346 355.278 372.197 355.558 372.104C355.838 372.011 356.134 371.975 356.428 371.998C356.722 372.021 357.008 372.104 357.27 372.24C357.808 372.535 358.212 373.026 358.398 373.61C358.584 374.195 358.538 374.828 358.27 375.38Z" fill="#263238"/>
<path d="M372.55 400.64C372.55 400.64 366.62 399.45 364.55 398.35C363.336 397.712 362.34 396.727 361.69 395.52C362.004 396.731 362.558 397.867 363.32 398.86C364.83 400.79 372.55 402.22 372.55 402.22V400.64Z" fill="#F28F8F"/>
<path d="M372.32 386.07C372.311 386.303 372.232 386.529 372.095 386.718C371.958 386.907 371.769 387.052 371.55 387.134C371.331 387.216 371.093 387.232 370.865 387.18C370.638 387.128 370.43 387.01 370.269 386.84C370.108 386.671 370.001 386.458 369.96 386.228C369.919 385.998 369.947 385.761 370.039 385.547C370.132 385.333 370.286 385.15 370.482 385.023C370.678 384.895 370.907 384.828 371.14 384.83C371.299 384.834 371.456 384.869 371.601 384.933C371.747 384.998 371.878 385.09 371.987 385.205C372.097 385.321 372.183 385.456 372.24 385.605C372.297 385.753 372.324 385.911 372.32 386.07Z" fill="#263238"/>
<path d="M371.07 381.59L368.53 382.99C368.352 382.645 368.315 382.244 368.424 381.872C368.534 381.499 368.784 381.184 369.12 380.99C369.287 380.898 369.47 380.841 369.66 380.822C369.849 380.802 370.04 380.821 370.222 380.877C370.404 380.933 370.573 381.025 370.719 381.147C370.864 381.27 370.984 381.42 371.07 381.59Z" fill="#263238"/>
<path d="M372 393.52L374.71 394.52C374.652 394.702 374.557 394.871 374.432 395.015C374.307 395.16 374.154 395.278 373.982 395.362C373.81 395.446 373.623 395.495 373.432 395.505C373.241 395.514 373.05 395.486 372.87 395.42C372.508 395.277 372.216 394.999 372.054 394.645C371.891 394.291 371.872 393.888 372 393.52Z" fill="#F28F8F"/>
<path d="M382.91 382.58L380.59 380.79C380.699 380.635 380.837 380.503 380.998 380.403C381.158 380.303 381.337 380.237 381.524 380.208C381.711 380.179 381.902 380.188 382.085 380.235C382.268 380.281 382.44 380.365 382.59 380.48C382.901 380.723 383.107 381.076 383.167 381.467C383.226 381.857 383.134 382.255 382.91 382.58Z" fill="#263238"/>
<path d="M382.19 385.73C382.18 385.963 382.102 386.189 381.965 386.378C381.828 386.567 381.638 386.712 381.419 386.794C381.201 386.876 380.963 386.892 380.735 386.84C380.507 386.788 380.3 386.67 380.139 386.5C379.978 386.331 379.87 386.118 379.829 385.888C379.789 385.658 379.816 385.421 379.909 385.207C380.002 384.993 380.156 384.81 380.352 384.683C380.547 384.555 380.776 384.488 381.01 384.49C381.33 384.5 381.633 384.636 381.854 384.868C382.075 385.1 382.195 385.41 382.19 385.73Z" fill="#263238"/>
<path d="M375.84 384.83L376.22 391.97L379.95 390.7L375.84 384.83Z" fill="#F28F8F"/>
<path d="M432.46 398.09C432.46 395.89 434.3 392.82 433.74 391.19L429.68 388.84L421.54 409.29L413.24 414.01L409.14 408.01L421.41 389.7L417.35 387.36C416.84 387.6 416.35 387.86 415.79 388.16C406.52 393.43 398.95 406.41 398.88 417.16C398.88 422.58 400.73 426.38 403.79 428.16L407.79 430.49L408.26 429.27H408.56V524.42C402.86 530.77 398.89 539.69 398.84 547.42C398.84 551.42 399.84 554.58 401.63 556.66L405.69 559.01L409.76 536.21L418.06 531.49L422.16 537.49L414 558.18L418.06 560.52C418.06 560.52 432.4 539.12 432.47 528.38C432.577 525.694 431.973 523.028 430.72 520.65L431.72 519.8L427.72 517.47C426.212 516.576 424.47 516.155 422.72 516.26V421.12C428.44 414.77 432.41 405.86 432.46 398.09Z" fill="#455A64"/>
<path d="M408.6 524.43L412.66 526.78V431.63L408.6 429.28V524.43Z" fill="#263238"/>
<path d="M426.8 518.62V423.47C432.5 417.12 436.47 408.2 436.52 400.47C436.52 396.47 435.52 393.31 433.74 391.23L425.6 411.68L417.3 416.4L413.2 410.4L421.41 389.74C420.897 389.98 420.377 390.25 419.85 390.55C410.58 395.82 403.01 408.8 402.94 419.55C402.89 427.43 406.88 431.89 412.66 431.66V526.81C406.96 533.15 402.99 542.07 402.94 549.81C402.94 553.81 403.94 556.97 405.73 559.06L413.86 538.6L422.16 533.89L426.26 539.89L418.05 560.54C418.57 560.3 419.05 560.04 419.61 559.74C428.88 554.47 436.45 541.49 436.52 530.74C436.57 522.85 432.58 518.39 426.8 518.62Z" fill="#37474F"/>
<path d="M420.39 534.89L422.16 533.89L426.26 539.87L418.05 560.52L413.99 558.18L422.2 537.52L420.39 534.89Z" fill="#263238"/>
<path d="M426.8 440.4C426.8 441.93 424.48 443.63 422.8 444.7C421.12 445.77 418.94 447.26 419.8 450.35C419.951 450.952 420.227 451.515 420.61 452.003C420.994 452.491 421.476 452.893 422.025 453.182C422.575 453.471 423.179 453.64 423.798 453.68C424.418 453.719 425.038 453.627 425.62 453.41C426.638 452.967 427.521 452.264 428.183 451.373C428.844 450.482 429.26 449.432 429.39 448.33C429.81 445.48 430.77 438.66 426.87 437.86L426.8 440.4Z" fill="#FFA8A7"/>
<path d="M333.63 448.58C340.39 418.23 344.63 411.58 354.03 408.11L352.75 426.35C352.75 426.35 343.93 446 342.6 453C341.43 459.11 340.12 466.79 340.33 472C340.37 472.924 340.752 473.801 341.4 474.46C343.13 476.26 343.62 477.77 344.76 479.77C345.64 481.34 346.59 481.91 346.33 482.27C345.993 482.662 345.517 482.907 345.003 482.956C344.488 483.004 343.975 482.852 343.57 482.53C342.643 481.868 341.8 481.096 341.06 480.23C341.308 482.258 341.878 484.233 342.75 486.08C344.75 490.31 344.32 492.5 338.52 491.08C334.88 490.2 332.52 487.24 331.83 478.57C331.503 475.378 331.406 472.166 331.54 468.96C332.14 460.71 332.54 453.46 333.63 448.58Z" fill="#FFA8A7"/>
<path d="M354.85 406C352.441 406.081 350.097 406.802 348.06 408.09C345.7 409.68 341.77 416.09 339.28 424.02C336.79 431.95 335.48 436.35 335.48 436.35C335.48 436.35 339.56 442.56 348.36 440.11C348.36 440.11 353.31 427.71 353.03 428.5C353 428.52 359.59 416.29 354.85 406Z" fill="#E6E6E6"/>
</svg>
